PathFileType	4	(X/Y/Z)	./resultDataOpenSim/trcMotMarkerGrf/sub06/qtm-12-03.trc
DataRate	CameraRate	NumFrames	NumMarkers	Units	OrigDataRate	OrigDataStartFrame	OrigNumFrames
250.000000	250.000000	15	24	m	250.000000	393	523
Frame#	Time	L.Toe.Tip			R.Toe.Tip			L.Ankle.Lat			R.Ankle.Lat			L.Ankle.Med			R.Ankle.Med			L.Heel			R.Heel			L.Knee.Lat			R.Knee.Lat			L.Knee.Med			R.Knee.Med			L.Thigh.Upper			R.Thigh.Upper			L.ASIS			R.ASIS			V.Sacral			L.Acromium			R.Acromium			C7			L.Elbow			R.Elbow			L.Wrist.Lat			R.Wrist.Lat
		X1	Y1	Z1	X2	Y2	Z2	X3	Y3	Z3	X4	Y4	Z4	X5	Y5	Z5	X6	Y6	Z6	X7	Y7	Z7	X8	Y8	Z8	X9	Y9	Z9	X10	Y10	Z10	X11	Y11	Z11	X12	Y12	Z12	X13	Y13	Z13	X14	Y14	Z14	X15	Y15	Z15	X16	Y16	Z16	X17	Y17	Z17	X18	Y18	Z18	X19	Y19	Z19	X20	Y20	Z20	X21	Y21	Z21	X22	Y22	Z22	X23	Y23	Z23	X24	Y24	Z24

393	1.568	1.6129689	0.043425931	-0.045945603	0.88339901	0.036140051	0.15182597	1.4864898	0.069638607	-0.068569376	0.81229622	0.14884963	0.18281053	1.4858658	0.081332191	0.015521106	0.85089143	0.14744519	0.10004887	1.4149974	0.036888212	-0.027804384	0.77009282	0.16983999	0.11881282	1.4315946	0.44021611	-0.065944945	1.1053121	0.4191743	0.19874165	1.3983491	0.42465978	0.050577271	1.0874428	0.41082706	0.069165906	1.269337	0.79031357	-0.1228773	1.1832275	0.77285928	0.21916435	1.3244394	0.83681299	-0.063902894	1.2936033	0.82758362	0.18267156	1.1179846	0.89589241	0.040382015	1.203343	1.3054035	-0.14584498	1.217242	1.3077472	0.2129191	1.1304091	1.3399765	0.036043277	1.0833805	1.023169	-0.18050202	1.2946309	0.99653932	0.3130271	1.1113608	0.78980144	-0.24908772	1.5010301	1.0902602	0.20116202
394	1.572	1.6141175	0.040664339	-0.045214753	0.88469634	0.036278379	0.15193121	1.4880167	0.069345814	-0.068187358	0.81813156	0.15126345	0.18345226	1.4870091	0.080726362	0.01614321	0.8574202	0.14864697	0.10136089	1.4157245	0.037318253	-0.027760345	0.77729333	0.17387461	0.11901007	1.4397304	0.4410514	-0.065993941	1.1155476	0.41709765	0.19999713	1.4045646	0.42492672	0.050181429	1.0973976	0.40802408	0.070142516	1.2764193	0.79140047	-0.12348893	1.1913734	0.77091262	0.21855138	1.3309484	0.83685059	-0.064599486	1.2999763	0.82644738	0.18152561	1.1242466	0.89511957	0.04004396	1.2104718	1.3044684	-0.14700098	1.2231721	1.3070827	0.21225393	1.137172	1.3394405	0.034695527	1.0908195	1.0219357	-0.18130683	1.2981243	0.99494708	0.3124086	1.119463	0.78847442	-0.24932547	1.5056254	1.0871183	0.20106015
395	1.576	1.6150382	0.038831728	-0.044284302	0.8862264	0.03654291	0.15201142	1.4891057	0.069305719	-0.067675927	0.82430791	0.15381974	0.18403859	1.4877218	0.080148324	0.016972814	0.86421732	0.14993269	0.10265134	1.4162938	0.037618926	-0.027545666	0.78482013	0.17805493	0.1191401	1.4478045	0.44213775	-0.065971194	1.1262191	0.41495447	0.20125375	1.410893	0.42560025	0.049882297	1.1077052	0.40503625	0.071151197	1.2832759	0.79254595	-0.12411576	1.199226	0.76901793	0.21787149	1.3373154	0.837039	-0.065321067	1.3060538	0.82535237	0.18029583	1.1303481	0.89441812	0.03970925	1.2176161	1.3036139	-0.14813488	1.2292104	1.3064792	0.21161936	1.1439229	1.338987	0.033396825	1.0983263	1.0207521	-0.18210355	1.3014142	0.99336525	0.31176015	1.1277671	0.78720179	-0.24952413	1.5101807	1.0838428	0.20097986
396	1.58	1.6158763	0.037680226	-0.043208211	0.88800397	0.037005635	0.152083	1.4900354	0.06941168	-0.067099084	0.83075181	0.15658685	0.18458449	1.4883655	0.079602223	0.01783065	0.87113327	0.15143791	0.10386744	1.4168209	0.037871183	-0.027267203	0.79258002	0.18245643	0.11928219	1.4557816	0.44328939	-0.065898518	1.1370857	0.41277662	0.20248108	1.4173194	0.42662271	0.049674433	1.1183425	0.4018739	0.072173192	1.2898659	0.79366721	-0.12480051	1.2072845	0.76712326	0.21734627	1.3435497	0.8373616	-0.066078714	1.3118601	0.82430791	0.17898196	1.1363006	0.89377586	0.039405623	1.2247738	1.3028404	-0.14922869	1.2353897	1.3059209	0.21100605	1.1506298	1.3386151	0.032151424	1.105899	1.0196133	-0.18288133	1.3045243	0.99176732	0.3111091	1.1362813	0.78598781	-0.24968975	1.5146955	1.0804422	0.20091369
397	1.584	1.6167162	0.036829529	-0.042188834	0.89003234	0.037710544	0.15216821	1.4909497	0.069521045	-0.066537742	0.83742963	0.15958792	0.18509348	1.489117	0.079113576	0.018566428	0.87810303	0.15326439	0.1049828	1.4173151	0.038086135	-0.027041604	0.80052672	0.18711645	0.11949877	1.4636079	0.44434719	-0.065820259	1.1478639	0.41062147	0.20372321	1.423814	0.42791701	0.049542484	1.1292757	0.39857282	0.073195418	1.296168	0.7947106	-0.12556186	1.2151735	0.76527071	0.2169603	1.3496769	0.83779593	-0.06689411	1.3175605	0.82330241	0.17761765	1.1422309	0.89317381	0.039152763	1.231943	1.3021484	-0.15027357	1.2416891	1.305397	0.21039523	1.1572826	1.338323	0.030955901	1.1135378	1.0185101	-0.18363841	1.3075233	0.99014756	0.31047214	1.1450099	0.78483503	-0.24982842	1.5191736	1.0769128	0.20086762
398	1.588	1.6175667	0.036056233	-0.041429964	0.89229185	0.038651769	0.15229171	1.491806	0.069516239	-0.0660969	0.84437792	0.16279716	0.18557023	1.4899287	0.078727166	0.019109497	0.88515288	0.1554547	0.10594248	1.4177405	0.038249585	-0.026919303	0.80869424	0.19202391	0.11980797	1.4711664	0.44520643	-0.065764913	1.1584881	0.40853923	0.204995	1.4303313	0.42939505	0.049467851	1.1404799	0.39518835	0.074202209	1.3021885	0.79564735	-0.1263935	1.2222389	0.76353655	0.216517	1.3557241	0.83832261	-0.067782593	1.3233795	0.82231716	0.17626029	1.1482501	0.89260619	0.038960191	1.239115	1.3015399	-0.15126735	1.248069	1.3049114	0.20976649	1.1638883	1.3381066	0.029801088	1.1212464	1.0174322	-0.18437808	1.3104892	0.98856791	0.30980206	1.1539546	0.78374553	-0.24994325	1.5236171	1.073238	0.20084729
399	1.592	1.6183287	0.035362136	-0.041021345	0.89475572	0.039785753	0.15248006	1.492468	0.069370444	-0.065878715	0.85167698	0.16617482	0.18602164	1.490669	0.078486023	0.019462285	0.89237816	0.15795108	0.10669186	1.4180785	0.038371935	-0.026883073	0.81718128	0.19710387	0.12019049	1.4783291	0.44582599	-0.065750285	1.1691091	0.40656256	0.20624758	1.4368046	0.4309628	0.049429974	1.1519471	0.39178508	0.075167453	1.3079564	0.79646405	-0.12727277	1.228376	0.76195659	0.21587835	1.3617048	0.83892895	-0.06874745	1.3294053	0.82135428	0.17494872	1.154245	0.89210602	0.038831758	1.2462741	1.3010191	-0.15220788	1.2544957	1.3044869	0.20910833	1.1704455	1.3379677	0.028683585	1.1290257	1.0163768	-0.18510967	1.3134544	0.98712377	0.30902484	1.1631139	0.78272055	-0.25003234	1.5280277	1.0693977	0.20085559
400	1.596	1.6188873	0.034836417	-0.04089471	0.89743488	0.041066266	0.15275589	1.4928761	0.069160635	-0.065912856	0.85938421	0.16968917	0.18643618	1.4912775	0.078397476	0.019669368	0.89989019	0.1606115	0.10723651	1.4183398	0.038479653	-0.026888328	0.8260786	0.20222965	0.12061252	1.4850462	0.44621333	-0.065812316	1.1798946	0.40471033	0.20740995	1.4431742	0.43252463	0.049401497	1.1636783	0.38842667	0.076059401	1.3135153	0.79715951	-0.1281683	1.2339801	0.76053813	0.21506073	1.3676128	0.83960105	-0.069783859	1.3355646	0.82043758	0.1736895	1.1599311	0.89173653	0.038719626	1.2534049	1.3005888	-0.1530928	1.2609405	1.3041483	0.20841625	1.1769399	1.3379145	0.027614625	1.1368641	1.0153547	-0.18585096	1.3163974	0.98585716	0.30812277	1.1724745	0.78176034	-0.25009063	1.5324094	1.0653842	0.20089997
401	1.6	1.6192463	0.034496657	-0.040880344	0.90037752	0.042464831	0.15312559	1.4931195	0.068998571	-0.066111867	0.86749125	0.17330004	0.1867799	1.4917857	0.078420101	0.019788053	0.90776144	0.16328799	0.10762755	1.4185396	0.038581513	-0.026891217	0.83540545	0.20727444	0.12103595	1.4913465	0.44638798	-0.066000104	1.1908691	0.40300099	0.20844543	1.4494185	0.43399201	0.04934662	1.1756762	0.38516355	0.07685943	1.3189105	0.79774668	-0.12904763	1.2394208	0.7592948	0.21414358	1.3734329	0.84031551	-0.070880907	1.341742	0.81958721	0.17247965	1.1652146	0.89152654	0.038547475	1.2604942	1.3002452	-0.15392243	1.2673664	1.3039065	0.2076944	1.1833596	1.337951	0.026612511	1.1447403	1.0143844	-0.18661842	1.319311	0.98474186	0.30713482	1.1820141	0.78086404	-0.25011392	1.5367601	1.061199	0.20098787
402	1.604	1.6194992	0.03427711	-0.040843213	0.90361283	0.043967606	0.15357576	1.4933354	0.068934911	-0.066313107	0.87593551	0.17694597	0.18701656	1.4922498	0.078495073	0.019864372	0.91601488	0.16588834	0.10792053	1.4186821	0.038665332	-0.026857718	0.84511764	0.21215203	0.12141425	1.497256	0.44636524	-0.06635053	1.2018774	0.40146632	0.20937841	1.4555497	0.43530138	0.049224277	1.1879393	0.38202107	0.077596953	1.3241788	0.79824914	-0.12988757	1.2448436	0.75824021	0.21318357	1.3791594	0.84104385	-0.072017732	1.347853	0.81880918	0.17132402	1.1703498	0.89144202	0.038282809	1.2675289	1.2999835	-0.15469715	1.2737267	1.3037623	0.20695835	1.1897029	1.3380771	0.025686391	1.1526414	1.0134769	-0.18740804	1.3222433	0.98373016	0.30611306	1.1917185	0.78002972	-0.2501032	1.5410596	1.0568359	0.20111895
403	1.608	1.6197	0.034114928	-0.040771686	0.90713758	0.045571372	0.15408829	1.4935731	0.068933618	-0.066402961	0.88461477	0.18057508	0.18711766	1.4927055	0.078581385	0.019915286	0.92464399	0.16838392	0.10815933	1.4187671	0.038720457	-0.026778297	0.85515268	0.21682116	0.12169156	1.5027439	0.44617229	-0.066881981	1.212741	0.40013251	0.21025612	1.4615748	0.436425	0.048992401	1.2004502	0.37899709	0.078365646	1.3293577	0.79869443	-0.13068311	1.2502582	0.75737698	0.21220248	1.3848011	0.84176559	-0.073165419	1.3538672	0.81811239	0.17023232	1.1756886	0.8914417	0.037940629	1.2744968	1.2998039	-0.15541401	1.2799777	1.3037177	0.20622803	1.1959748	1.3382968	0.024834219	1.1605708	1.0126248	-0.18818783	1.3252128	0.98279044	0.30512299	1.2015884	0.77925766	-0.25006444	1.5452787	1.0522916	0.20128964
404	1.612	1.6198355	0.033986625	-0.040737839	0.91096823	0.047276374	0.15465716	1.493779	0.068927448	-0.066406604	0.89339092	0.18418641	0.18706305	1.4931635	0.078662672	0.01992767	0.93361738	0.17077709	0.10835361	1.4188044	0.038755089	-0.026696883	0.86545701	0.22126905	0.12181472	1.5077528	0.44585272	-0.067595341	1.2234644	0.39898999	0.21108716	1.4674827	0.43735936	0.0486211	1.2131564	0.3760936	0.079235098	1.3344929	0.79911329	-0.13145056	1.25564	0.75670045	0.21120443	1.3903725	0.84247701	-0.074298242	1.3597976	0.81752278	0.16921042	1.1814101	0.89152399	0.037543906	1.2813878	1.2997078	-0.15607129	1.2860954	1.3037718	0.20552284	1.2021797	1.3386109	0.02405042	1.1685362	1.0118113	-0.18892426	1.3281359	0.98193025	0.30423884	1.2116307	0.77855264	-0.25000319	1.5493991	1.0475888	0.2014992
405	1.616	1.6198929	0.033884936	-0.040796698	0.91520748	0.049078651	0.15528206	1.493888	0.0688746	-0.066425933	0.90219039	0.18779687	0.18685881	1.4935971	0.078743505	0.019881336	0.94288027	0.17307159	0.10847499	1.4188189	0.038796461	-0.02671606	0.87598822	0.22548919	0.12175559	1.5122688	0.44544944	-0.068464854	1.2342133	0.39800589	0.21184067	1.4732614	0.43810699	0.048102548	1.2259647	0.37337252	0.080107829	1.3396241	0.7995427	-0.13221592	1.2609752	0.75620437	0.21019032	1.3958834	0.84318834	-0.075399461	1.3656664	0.81707435	0.16826104	1.1874564	0.8917151	0.037117477	1.2881957	1.2996941	-0.15667545	1.292081	1.3039151	0.20486029	1.2083151	1.3390038	0.023323205	1.176538	1.0110261	-0.18959423	1.330893	0.98120569	0.30348428	1.2218465	0.77792168	-0.24991994	1.5534229	1.042763	0.20174798
406	1.62	1.6198938	0.033803753	-0.040937755	0.92007465	0.050982746	0.15595062	1.4939022	0.068771849	-0.066516388	0.91118048	0.19134053	0.18656541	1.4938869	0.078834108	0.019784336	0.95237993	0.17527233	0.10849309	1.4188371	0.038869179	-0.026910459	0.88670827	0.22946868	0.12153238	1.5163442	0.44499235	-0.069438978	1.245125	0.39716528	0.21249759	1.4788763	0.43866971	0.047442796	1.2387752	0.37095263	0.080775606	1.344765	0.8000224	-0.13298443	1.2662659	0.7558834	0.20916332	1.4013357	0.84391455	-0.076453957	1.3714791	0.81679903	0.16738798	1.1936012	0.89205119	0.036699965	1.2949221	1.2997633	-0.15723957	1.2979437	1.3041364	0.20425394	1.2143754	1.3394589	0.022635593	1.184569	1.0102705	-0.19016911	1.3333744	0.9807202	0.30277164	1.2322281	0.77737357	-0.24980918	1.5573639	1.0378329	0.20203208
407	1.624	1.6198722	0.033739488	-0.041111449	0.92578726	0.052998384	0.15665929	1.4938833	0.068638244	-0.066658761	0.92068634	0.19467518	0.18628123	1.4937668	0.078920471	0.019692148	0.96209373	0.17739545	0.10840786	1.4188627	0.038963525	-0.027198452	0.89757787	0.23318985	0.12120534	1.5200585	0.44449716	-0.070462666	1.2561986	0.39648796	0.21308096	1.4842426	0.43905106	0.04665744	1.2515262	0.36893611	0.081159723	1.3499001	0.80058569	-0.13372717	1.271522	0.75573326	0.20812896	1.4067327	0.84466629	-0.077441038	1.3772277	0.81672778	0.16659558	1.199611	0.89256837	0.036331935	1.3015766	1.2999222	-0.15777258	1.3036834	1.304438	0.20371366	1.2203597	1.339979	0.021978515	1.1926106	1.0095553	-0.19064501	1.3354474	0.98059681	0.30190717	1.2427658	0.77692059	-0.24966242	1.5612269	1.0327975	0.20234699
